# xmcd CD database file
#
# Track frame offsets:
#	150
#	19550
#	37110
#	56132
#	72050
#	85635
#	99325
#	118150
#	145584
#	160387
#	175747
#	192719
#	209433
#	230209
#
# Disc length: 3424 seconds
#
# Revision: 0
# Processed by: cddbd v1.5.2PL0 Copyright (c) Steve Scherf et al.
# Submitted via: CDex 1.51
#
DISCID=c50d5e0e
DTITLE=松尾泰伸 - RED rlung Disc2 MOON
DYEAR=2006
DGENRE=New Age
TTITLE0=日天 (即興演奏)
TTITLE1=いやしの桜
TTITLE2=RITA
TTITLE3=桜マイナー
TTITLE4=桜の元に
TTITLE5=トランステリトリー
TTITLE6=空へ
TTITLE7=MOON
TTITLE8=ハロルド
TTITLE9=reprise
TTITLE10=ANCIENT ROAD
TTITLE11=Pieces of Dream
TTITLE12=m－五色の虹－
TTITLE13=いつまでも
EXTD=YEAR: 2006
EXTT0=
EXTT1=
EXTT2=
EXTT3=
EXTT4=
EXTT5=
EXTT6=
EXTT7=
EXTT8=
EXTT9=
EXTT10=
EXTT11=
EXTT12=
EXTT13=
PLAYORDER=
